<svg xmlns="http://www.w3.org/2000/svg" xmlns:xlink="http://www.w3.org/1999/xlink" viewBox="0 0 513.18 549.98"><defs><style>.cls-1{fill:#657f04;}.cls-2{fill:#5b7003;}.cls-3{fill:url(#linear-gradient);}.cls-4{fill:#81a00d;}.cls-5{fill:url(#linear-gradient-2);}.cls-6{fill:#88af28;}.cls-7{fill:#5d7205;}.cls-8{fill:#72960e;}.cls-9{fill:url(#linear-gradient-3);}.cls-10{fill:url(#linear-gradient-4);}.cls-11{fill:#bcd879;}.cls-12{fill:url(#linear-gradient-5);}.cls-13{fill:#fcfcfc;}.cls-14{font-size:286.02px;fill:#fff;font-family:ArialMT, Arial;}</style><linearGradient id="linear-gradient" y1="503.44" x2="102.13" y2="503.44" gradientUnits="userSpaceOnUse"><stop offset="0" stop-color="#657f04"/><stop offset="1" stop-color="#8caa0f"/></linearGradient><linearGradient id="linear-gradient-2" x1="97.15" y1="15.92" x2="-17.02" y2="441.98" xlink:href="#linear-gradient"/><linearGradient id="linear-gradient-3" x1="303.11" y1="18.95" x2="303.11" y2="549.98" gradientUnits="userSpaceOnUse"><stop offset="0" stop-color="#97ca3f"/><stop offset="1" stop-color="#82ad2d"/></linearGradient><linearGradient id="linear-gradient-4" x1="303.97" y1="420.31" x2="303.97" y2="549.98" xlink:href="#linear-gradient-3"/><linearGradient id="linear-gradient-5" x1="219.5" y1="83.07" x2="399.51" y2="83.07" xlink:href="#linear-gradient-3"/></defs><g id="Layer_2" data-name="Layer 2"><g id="Layer_1-2" data-name="Layer 1"><g id="DaleRD_v2_ganador" data-name="DaleRD v2 ganador"><g id="bolsa"><polygon id="_12_piece" data-name="12 piece" class="cls-1" points="94.26 267.58 62.81 459.35 94.26 472.32 94.26 267.58"/><polygon id="_11_piece" data-name="11 piece" class="cls-2" points="102.13 547.53 94.26 472.32 62.81 459.35 102.13 547.53"/><path id="_10_piece" data-name="10 piece" class="cls-3" d="M5.8,496.16l57-36.81,39.32,88.18L10,517.16C-1.26,513.45-3.51,502.19,5.8,496.16Z"/><polygon id="_9_piece" data-name="9 piece" class="cls-4" points="0.54 446.69 62.81 459.35 0.54 502.46 0.54 446.69"/><path id="_8_piece" data-name="8 piece" class="cls-5" d="M5,46.39.54,446.69l62.27,12.66L95.36,266.76,120.57,40.13l12.77-14.52L40.18,22C21.41,21.26,5.52,32.28,5,46.39Z"/><path id="_7_piece" data-name="7 piece" class="cls-6" d="M416,14.44h0L364.74,9.65,393.6.85C404.64-2.51,416.24,4.53,416,14.44Z"/><polygon id="_6_piece" data-name="6 piece" class="cls-7" points="364.74 8.58 456.19 18.95 367.76 24.38 364.74 8.58"/><polygon id="_5_piece" data-name="5 piece" class="cls-8" points="38.74 22.19 394.4 0.63 367.3 8.87 367.76 24.38 139.95 38.9 141.51 25.86 38.74 22.19"/><polygon id="_4_piece" data-name="4 piece" class="cls-6" points="116.03 45.29 139.95 38.9 141.51 25.86 133.34 25.61 116.03 45.29"/><g id="_3_piece" data-name="3 piece"><path id="_3.2_piece" data-name="3.2 piece" class="cls-8" d="M369.93,57.93l-54.59,3.21-3.24,6.78c-1.13,3.78-11.26,8.36-17.45,8.59L223.79,80.8a26.6,26.6,0,0,0-.93,7.19c0,10.22,9.93,18.25,23.77,18.25l96.59-7c24.91,0,47.41-7.61,47.41-26C390.63,64.77,381.36,57.93,369.93,57.93Z"/><rect id="_3.1" data-name="3.1" class="cls-7" x="367.69" y="55.19" width="36.14" height="45.34"/></g><g id="_2_piece" data-name="2 piece"><path id="_2.2_piece" data-name="2.2 piece" class="cls-9" d="M507.62,429.48,505.69,58c-.11-22.9-26.24-40.85-56.63-38.91L141.7,38.67c-27,1.73-47.8,18.7-47.8,39.06v459.7c0,7.76,9.29,13.66,19.49,12.37L468.74,505c27.17-3.43,46.12-22.11,43.3-42.68l-4.32-31.44A10.83,10.83,0,0,1,507.62,429.48ZM342.41,99.14l-93.27,7.13a22.09,22.09,0,0,1-2.44.07c-13.27-.47-23.84-8.56-23.84-18.47,0-17.77,14.24-23.59,32-23.36.58,0,1.17,0,1.75,0l112.26-6.6a20.63,20.63,0,0,1,2.08,0c10.95.4,19.66,7.08,19.66,15.26,0,18.18-22,25.82-46.59,26C343.5,99.08,343,99.1,342.41,99.14Z"/><path id="_2.1_piece" data-name="2.1 piece" class="cls-10" d="M507.57,420.31l-412.81,52v65.11c0,7.76,9.29,13.66,19.49,12.37L469.61,505c27.17-3.43,46.12-22.11,43.29-42.68Z"/></g><g id="_1_piece" data-name="1 piece"><path id="_1.2_piece" data-name="1.2 piece" class="cls-11" d="M372.88,51.48c-.85,0-1.7,0-2.55.05L258.12,59.59c-.71,0-1.43,0-2.14,0-21.72-.27-39.11,6.83-39.11,28.54,0,12.11,12.91,22,29.12,22.56a27,27,0,0,0,3-.08l89-8.71c.66,0,1.33-.08,2-.08,30-.2,56.91-9.54,56.91-31.74C396.89,60.13,386.25,52,372.88,51.48ZM343.52,98.1c-.54,0-1.09,0-1.63.06l-93.27,7.13a22.09,22.09,0,0,1-2.44.07c-13.27-.47-23.84-8.56-23.84-18.47,0-17.77,14.24-23.59,32-23.37.58,0,1.17,0,1.75,0l112.26-6.6a20.63,20.63,0,0,1,2.08,0c10.95.4,19.66,7.08,19.66,15.26C390.11,90.28,368.1,97.93,343.52,98.1Z"/><path id="_1.1_piece" data-name="1.1 piece" class="cls-12" d="M375.5,53.44c-.85,0-1.7,0-2.55.06l-112.2,8.06c-.72,0-1.44,0-2.15,0-21.72-.27-39.1,6.83-39.1,28.54,0,12.1,12.9,22,29.11,22.56a24.72,24.72,0,0,0,3-.09l89-8.7c.66,0,1.33-.08,2-.08,30-.2,56.91-9.55,56.91-31.75C399.51,62.09,388.87,53.94,375.5,53.44Zm-29.36,46.62c-.54,0-1.09,0-1.63.07l-93.27,7.13a22.09,22.09,0,0,1-2.44.07C235.53,106.86,225,98.77,225,88.86c0-17.77,14.24-23.59,32-23.37.58,0,1.17,0,1.75,0L371,58.86a20.77,20.77,0,0,1,2.09,0c10.94.4,19.66,7.08,19.66,15.26C392.74,92.25,370.72,99.9,346.14,100.06Z"/></g></g><g id="Dale_RD_Grupo" data-name="Dale RD Grupo"><g id="Rayitas"><rect class="cls-13" x="223.04" y="147.52" width="25.04" height="274.54" transform="translate(-25.09 22.77) rotate(-5.25)"/><rect class="cls-13" x="189.23" y="184.34" width="25.04" height="207.13" transform="translate(-25.52 19.69) rotate(-5.25)"/></g><text class="cls-14" transform="translate(250.73 380.12) rotate(-5.25)">D</text></g></g></g></g></svg>